<svg
  viewBox="0 0 100 100"
  fill="none"
  xmlns="http://www.w3.org/2000/svg"
>
  <circle cx="50" cy="50" r="48" fill="url(#haloGradient)" />

  <circle cx="50" cy="50" r="45" stroke="#464554" stroke-width="0.5" stroke-dasharray="2 4" opacity="0.6" />
  <circle cx="50" cy="50" r="30" stroke="#908fa0" stroke-width="0.5" opacity="0.3" />

  <circle cx="50" cy="50" r="18" fill="#494bd6" opacity="0.2" />

  <ellipse cx="50" cy="50" rx="40" ry="12" transform="rotate(30 50 50)" stroke="#ddb7ff" stroke-width="1" opacity="0.4" />
  <ellipse cx="50" cy="50" rx="40" ry="12" transform="rotate(-30 50 50)" stroke="#ddb7ff" stroke-width="1" opacity="0.4" />
  <ellipse cx="50" cy="50" rx="40" ry="12" transform="rotate(90 50 50)" stroke="#4fdbc8" stroke-width="0.5" opacity="0.6" stroke-dasharray="4 4" />

  <path
    d="M 40 36 L 40 64 M 60 36 L 60 64 M 40 50 L 60 50"
    stroke="#e5e1e4"
    stroke-width="6"
    stroke-linecap="round"
    stroke-linejoin="round"
  />

  <circle cx="20" cy="30" r="1.5" fill="#4fdbc8" opacity="0.9" />
  <circle cx="80" cy="70" r="1.5" fill="#4fdbc8" opacity="0.9" />
  <circle cx="75" cy="35" r="1" fill="#c0c1ff" opacity="0.8" />
  <circle cx="25" cy="65" r="1" fill="#c0c1ff" opacity="0.8" />
  <circle cx="50" cy="15" r="2" fill="#ddb7ff" opacity="0.9" />
  <circle cx="50" cy="85" r="1.5" fill="#ddb7ff" opacity="0.7" />

  <defs>
    <radialGradient id="haloGradient" cx="50%" cy="50%" r="50%">
      <stop offset="0%" stop-color="#494bd6" stop-opacity="0.25" />
      <stop offset="70%" stop-color="#ddb7ff" stop-opacity="0.05" />
      <stop offset="100%" stop-color="#131315" stop-opacity="0" />
    </radialGradient>
  </defs>
</svg>
